<svg t="1653288857557" class="icon" viewBox="0 0 1024 1024" version="1.1" xmlns="http://www.w3.org/2000/svg" p-id="13404" width="200" height="200">
  <path d="M813.381643 220.355182a24.679026 24.679026 0 0 1-17.510552-7.251012C649.121681 66.346506 434.657647 13.286601 236.197837 74.637503a24.761564 24.761564 0 1 1-14.625831-47.311095C437.633161-39.463784 671.114077 18.304945 830.892196 178.087192a24.757437 24.757437 0 0 1-17.510553 42.26799z" fill="#F59FB3" p-id="13405"></path>
  <path d="M775.368515 252.846481a24.687279 24.687279 0 0 1-17.506425-7.251012C594.130374 81.86788 341.063061 50.193713 142.446428 168.574624a24.761564 24.761564 0 1 1-25.355842-42.540367C335.206951-3.968082 613.097732 30.797154 792.874941 210.574364a24.75331 24.75331 0 0 1 0 35.016978 24.674899 24.674899 0 0 1-17.506426 7.255139z" fill="#FFFF75" p-id="13406"></path>
  <path d="M740.153444 288.049171a24.679026 24.679026 0 0 1-17.510552-7.251011c-137.954928-137.963182-348.159973-172.773814-523.067409-86.628333a24.761564 24.761564 0 0 1-21.880968-44.430499C371.622958 54.221594 604.703562 92.816618 757.65987 245.777054a24.75331 24.75331 0 0 1 0 35.016979 24.674899 24.674899 0 0 1-17.506426 7.255138z" fill="#AFEB75" p-id="13407"></path>
  <path d="M703.535218 321.943625a24.687279 24.687279 0 0 1-17.506426-7.251011c-156.918159-156.914032-412.247028-156.914032-569.165187 0a24.761564 24.761564 0 0 1-35.016978-35.016979c176.228052-176.228052 462.971092-176.223925 639.195017 0a24.757437 24.757437 0 0 1-17.506426 42.26799z" fill="#75D5EB" p-id="13408"></path>
  <path d="M298.993164 982.285018c-37.546785 37.555039-85.679139 30.374185-119.470421-3.412969-33.795408-33.791281-40.963881-81.927762-3.412968-119.462166L848.563699 186.943578c37.546785-37.550912 85.683266-30.378312 119.47042 3.412969 33.791281 33.791281 40.968008 81.923635 3.417096 119.47042L298.993164 982.285018z" fill="#B6B6CC" p-id="13409"></path>
  <path d="M968.034119 190.356547c-33.791281-33.795408-81.931889-40.963881-119.47042-3.412969l-167.251985 167.260239 122.875135 122.883389 167.264366-167.260239c37.550912-37.546785 30.382439-85.675012-3.417096-119.47042z" fill="#E8E8FF" p-id="13410"></path>
  <path d="M202.509729 902.305166L874.963653 229.847115c30.357678-30.361805 67.648593-31.476075 98.670707-12.925537a107.721058 107.721058 0 0 0-16.338506-20.803841c-33.791281-33.791281-81.931889-40.963881-119.474547-3.412969L165.367383 865.16282c-37.550912 37.542658-30.382439 85.679139 3.412969 119.462166a107.593123 107.593123 0 0 0 20.80384 16.338505c-18.554665-31.022113-17.440395-68.304775 12.925537-98.658325z" fill="#FFFFFF" opacity=".43" p-id="13411"></path>
  <path d="M242.474893 1023.991746c-26.560904 0-53.059905-11.877297-74.627227-33.444619-19.895917-19.89179-31.71131-44.385104-33.263035-68.956829-1.712675-27.080897 8.612897-52.622451 29.854193-73.855492L836.892749 175.2685c19.640047-19.644174 43.22131-30.027523 68.18922-30.027523 26.560904 0 53.059905 11.877297 74.627228 33.444619 19.895917 19.900044 31.71131 44.389231 33.263034 68.956829 1.712675 27.080897-8.60877 52.618324-29.845938 73.855492L310.668241 993.955969c-19.644174 19.648301-43.225437 30.035777-68.193348 30.035777zM905.081969 178.256396c-16.25184 0-31.339886 6.850699-44.843192 20.358132L187.784852 871.080834c-14.341073 14.336946-21.340341 31.07989-20.246706 48.425365 1.044113 16.544852 9.446537 33.481762 23.655548 47.690773 15.331535 15.335662 33.543666 23.779355 51.281199 23.779355 16.247713 0 31.335759-6.850699 44.843193-20.362259L959.780265 298.151889c14.341073-14.336946 21.336214-31.084017 20.238451-48.425365-1.044113-16.544852-9.446537-33.481762-23.655547-47.699027-15.331535-15.327408-33.539539-23.771102-51.2812-23.771101z" fill="#6E6E96" p-id="13412"></path>
  <path d="M693.01568 342.516358l122.879262 122.879262-23.341901 23.341902-122.879262-122.879263z" fill="#6E6E96" p-id="13413"></path>
  <path d="M963.19736 187.595632c-33.791281-33.795408-81.931889-40.963881-119.474547-3.412969L171.268889 856.636588c-37.550912 37.546785-30.382439 85.683266 3.412969 119.474547 33.791281 33.791281 81.923635 40.968008 119.47042 3.404715L966.618583 307.070179c37.542658-37.550912 30.374185-85.679139-3.421223-119.474547zM919.179553 272.57732l-172.274456 172.274456-66.740669-66.748923-23.899036 23.894909 66.75305 66.744797-432.629922 432.625795c-52.131346 52.131346-66.113376 42.404179-93.516174 15.013761-21.587957-21.587957-20.102263-58.404276 15.009635-93.516174L840.668887 194.066654c35.103644-35.107771 71.928217-36.597592 93.516174-15.005508 21.600338 21.596211 20.102263 58.408403-15.005508 93.516174z" fill="#6E6E96" opacity=".25" p-id="13414"></path>
  <path d="M203.793203 543.732956c2.996149-9.157652 12.351894-20.399402 20.824476-24.996799l0.037142-0.016508c8.484963-4.59327 8.484963-12.104278 0-16.685167l-0.037142-0.024762c-8.472582-4.585016-18.315304-14.927096-21.876842-22.970478-3.557411-8.051635-9.384633-8.051635-12.958552 0-3.557411 8.051635-13.40426 18.385461-21.89335 22.970478l-0.045396 0.024762c-8.480836 4.585016-8.480836 12.091897 0 16.685167l0.045396 0.016508c8.48909 4.576762 17.828326 15.839147 20.820349 24.996799l2.129494 6.471022c2.992022 9.157652 7.832908 9.157652 10.841438 0l2.112987-6.471022z" fill="#FFBF00" p-id="13415"></path>
  <path d="M469.431137 385.898619c3.483127-10.721757 14.444246-23.874275 24.352998-29.231027l0.049523-0.028888c9.896372-5.356752 9.896372-14.147107 0-19.512113l-0.049523-0.033015c-9.908753-5.340244-21.410499-17.456903-25.578696-26.853917-4.159943-9.409394-10.990008-9.409394-15.154077 0-4.143435 9.397014-15.678197 21.513672-25.58695 26.853917l-0.037142 0.033015c-9.908753 5.352625-9.908753 14.14298 0 19.512113l0.037142 0.028888c9.908753 5.356752 20.865745 18.542285 24.352999 29.231027l2.472029 7.568785c3.483127 10.725884 9.198921 10.725884 12.677921 0l2.463776-7.568785z" fill="#7FDCFF" p-id="13416"></path>
  <path d="M37.837073 172.103147c1.923148-5.897379 7.952589-13.140137 13.40426-16.078509l0.024762-0.012381c5.447544-2.963134 5.447544-7.799893 0-10.746519l-0.024762-0.01238c-5.443417-2.959007-11.778251-9.607487-14.081076-14.790908-2.290445-5.179294-6.045949-5.179294-8.332266 0-2.298699 5.183421-8.637659 11.831901-14.076949 14.790908l-0.028889 0.01238c-5.443417 2.950753-5.443417 7.783385 0 10.746519l0.028889 0.012381c5.43929 2.950753 11.468731 10.193511 13.40426 16.078509l1.357759 4.16407c1.923148 5.90976 5.059613 5.90976 6.966253 0l1.357759-4.16407z" fill="#FFB0B8" p-id="13417"></path>
</svg>